<svg width="101" height="101" viewBox="0 0 101 101" fill="none" xmlns="http://www.w3.org/2000/svg">
<path d="M73.1844 97.2697L64.1801 88.2653C63.2621 87.3473 63.2621 85.8629 64.1801 84.9449L85.8608 63.2642C86.7788 62.3462 88.2633 62.3462 89.1813 63.2642L98.1856 72.2685C101.838 75.921 101.838 81.8588 98.1856 85.5308L86.4468 97.2697C82.7943 100.942 76.8565 100.942 73.1844 97.2697ZM81.4465 55.5294L30.1551 4.238L6.42355 0.0971821C3.22028 -0.46925 0.44671 2.32385 0.99361 5.52712L5.15396 29.2587L56.4454 80.5501C57.3634 81.4681 58.8478 81.4681 59.7659 80.5501L81.4465 58.8694C82.3646 57.9319 82.3646 56.4475 81.4465 55.5294V55.5294ZM34.5499 24.2585C35.6241 23.1842 37.3429 23.1842 38.4172 24.2585L68.4967 54.338C69.571 55.4122 69.571 57.1311 68.4967 58.2053C67.4225 59.2796 65.7036 59.2796 64.6294 58.2053L34.5499 28.1258C33.4756 27.0516 33.4756 25.3327 34.5499 24.2585V24.2585ZM18.1233 17.2073V26.5828L11.0331 26.5828L8.826 13.9845L14.9005 7.91004L27.4987 10.1172V17.2073H18.1233Z"/>
</svg>
